<svg width="32" height="33" viewBox="0 0 32 33" fill="none" xmlns="http://www.w3.org/2000/svg">
<path fill-rule="evenodd" clip-rule="evenodd" d="M11.6238 4.00461C14.4881 2.29797 18.0088 2.3278 20.8462 4.08275C23.6557 5.87343 25.3632 9.06928 25.3473 12.5071C25.2819 15.9224 23.451 19.1328 21.1622 21.6145C19.8412 23.0534 18.3635 24.3257 16.7591 25.4055C16.5939 25.5035 16.4129 25.5691 16.2251 25.599C16.0443 25.5912 15.8683 25.5364 15.7129 25.4397C13.2635 23.8172 11.1147 21.7462 9.36982 19.3263C7.90973 17.3063 7.08021 14.8658 6.9939 12.3364C6.992 8.89192 8.75947 5.71124 11.6238 4.00461ZM13.2789 13.7618C13.7607 14.9798 14.898 15.7743 16.1597 15.7743C16.9863 15.7804 17.7808 15.4409 18.3664 14.8315C18.9519 14.222 19.2797 13.3932 19.2767 12.5298C19.2812 11.2119 18.5245 10.0212 17.3601 9.51365C16.1957 9.00611 14.8533 9.28185 13.9595 10.2121C13.0658 11.1424 12.7971 12.5437 13.2789 13.7618Z" fill="#615BC9"/>
<path opacity="0.4" d="M16.1707 29.6321C19.7909 29.6321 22.7256 29.0302 22.7256 28.2877C22.7256 27.5453 19.7909 26.9434 16.1707 26.9434C12.5506 26.9434 9.61584 27.5453 9.61584 28.2877C9.61584 29.0302 12.5506 29.6321 16.1707 29.6321Z" fill="#615BC9"/>
</svg>
