<svg width="32" height="33" viewBox="0 0 32 33" fill="none" xmlns="http://www.w3.org/2000/svg">
<path opacity="0.4" fill-rule="evenodd" clip-rule="evenodd" d="M12.1683 7.50393H20.2212V5.61496H12.1683V7.50393ZM10.3364 5.69253V5.70194C9.70781 5.75953 9.08593 5.88531 8.48093 6.07456V6.0675C8.46294 6.07513 8.44601 6.08099 8.42976 6.08662C8.40842 6.09401 8.38826 6.10099 8.36847 6.111C8.32012 6.12275 8.27289 6.14038 8.2279 6.16272C8.09521 6.20621 7.96251 6.25793 7.83768 6.31083C7.80451 6.32376 7.77134 6.33874 7.73816 6.35373C7.70499 6.36872 7.67181 6.3837 7.63864 6.39663C7.59309 6.41838 7.54558 6.44218 7.49807 6.46599C7.45056 6.48979 7.40305 6.51359 7.3575 6.53534L7.13259 6.66581C7.09101 6.68718 7.05252 6.71224 7.01324 6.73781L7.01324 6.73781C6.98985 6.75304 6.96618 6.76844 6.94142 6.78336C6.60293 7.00317 6.28918 7.2606 6.00579 7.55329L5.98893 7.57092C5.95171 7.61463 5.91464 7.65705 5.87808 7.69888C5.81633 7.76955 5.75601 7.83857 5.69879 7.90945L5.68192 7.92591C4.76204 9.20481 4.30098 10.7811 4.38082 12.3786V12.8852H6.19697V12.3739C6.19697 10.1475 6.90094 8.76166 8.46743 8.05168C9.06569 7.79661 9.69769 7.6391 10.3409 7.5815H10.3578V5.70076L10.3364 5.69253ZM26.6559 7.9024L26.6638 7.91886C27.5825 9.19894 28.0413 10.7764 27.9604 12.3739V12.8852H26.1453V12.3609C26.1836 11.4182 25.9958 10.4802 25.5977 9.63268C25.2153 8.90742 24.6036 8.34438 23.8648 8.03876C23.2766 7.78368 22.6536 7.62499 22.0182 7.56857V5.69724C22.6469 5.75601 23.2687 5.88061 23.8749 6.06986V6.06045C23.9089 6.07602 23.9349 6.08528 23.9795 6.10117L23.9873 6.10395C24.008 6.11132 24.0273 6.11869 24.0464 6.12598C24.073 6.13612 24.0991 6.14609 24.1279 6.15567C24.2522 6.19676 24.3685 6.24521 24.4882 6.29505L24.5091 6.30377C24.5643 6.32331 24.6163 6.34754 24.6632 6.36937C24.6784 6.37644 24.693 6.38326 24.707 6.38958C24.806 6.43307 24.9072 6.48479 24.9882 6.52829C25.0422 6.55652 25.0948 6.58673 25.1441 6.61507C25.1708 6.63038 25.1965 6.64515 25.221 6.65876C25.2613 6.68118 25.2963 6.70517 25.33 6.72823C25.3546 6.74507 25.3785 6.76142 25.4031 6.77631C25.7428 6.9973 26.0599 7.2559 26.3466 7.54624L26.3568 7.56387C26.4625 7.67084 26.5625 7.78368 26.6559 7.9024Z" fill="#615BC9"/>
<path d="M22.0702 4.38088V8.54328C22.0702 9.06773 21.6478 9.49251 21.1263 9.49251C20.6047 9.49251 20.1824 9.06773 20.1824 8.54328V4.39037C20.1776 3.86592 20.5977 3.43757 21.1192 3.43401C21.6407 3.43045 22.0666 3.85168 22.0702 4.37613V4.38088Z" fill="#615BC9"/>
<path d="M12.1592 4.39597V8.54809C12.1592 9.07481 11.7363 9.50189 11.2147 9.50189C10.6931 9.50189 10.2714 9.07481 10.2714 8.54809V4.39597C10.2714 3.86925 10.6931 3.44336 11.2147 3.44336C11.7363 3.44336 12.1592 3.86925 12.1592 4.39597Z" fill="#615BC9"/>
<path fill-rule="evenodd" clip-rule="evenodd" d="M4.37195 23.1266V12.8852H27.9695V23.1266C27.9695 27.5927 25.4938 29.8491 20.5875 29.8491H11.7427C6.84761 29.8491 4.37195 27.5927 4.37195 23.1266ZM9.69465 18.5788C9.69465 19.1984 10.1785 19.7011 10.7749 19.7011C11.3826 19.7011 11.8665 19.1867 11.8552 18.5671C11.8552 17.9475 11.3713 17.4447 10.7862 17.4447H10.7749C10.1785 17.4447 9.69465 17.9592 9.69465 18.5788ZM15.0848 18.5788C15.0848 19.1984 15.58 19.7011 16.1764 19.7011C16.7728 19.7011 17.2567 19.1984 17.2567 18.5671C17.2567 17.9592 16.7728 17.4564 16.1764 17.4447H16.1651C15.5687 17.4564 15.0848 17.9592 15.0848 18.5788ZM21.5666 19.7011C20.9702 19.7011 20.4863 19.1984 20.4863 18.5788C20.4863 17.9592 20.9589 17.4564 21.5666 17.4564C22.163 17.4564 22.6469 17.9592 22.6469 18.5788C22.6469 19.1984 22.163 19.7011 21.5666 19.7011ZM21.5666 24.4945C20.9702 24.4945 20.4863 23.9918 20.475 23.3722C20.475 22.7525 20.9589 22.2498 21.5553 22.2498H21.5666C22.163 22.2498 22.6469 22.7525 22.6469 23.3722C22.6469 23.9918 22.163 24.4945 21.5666 24.4945ZM16.1764 24.4945C15.58 24.4945 15.0848 23.9918 15.0848 23.3722C15.0848 22.7525 15.5687 22.2498 16.1651 22.2381H16.1764C16.7728 22.2498 17.2454 22.7525 17.2567 23.3605C17.2567 23.9918 16.7728 24.4945 16.1764 24.4945ZM10.7749 24.4945C10.1785 24.4945 9.69462 23.9918 9.69462 23.3722C9.68337 22.7525 10.1673 22.2381 10.7749 22.2381C11.3713 22.2381 11.8552 22.7408 11.8552 23.3605C11.8552 23.9801 11.3713 24.4945 10.7749 24.4945Z" fill="#615BC9"/>
</svg>
