<svg width="20" height="21" viewBox="0 0 20 21" fill="none" xmlns="http://www.w3.org/2000/svg">
<path d="M14.3749 7.87604H13.7499V4.59479C13.7499 3.5505 13.3548 2.54898 12.6515 1.81055C11.9483 1.07213 10.9944 0.657288 9.99988 0.657288C9.00532 0.657288 8.05149 1.07213 7.34823 1.81055C6.64497 2.54898 6.24988 3.5505 6.24988 4.59479V7.87604H5.62488C4.96206 7.8768 4.32659 8.1536 3.85791 8.64572C3.38923 9.13784 3.1256 9.80508 3.12488 10.501V17.7198C3.1256 18.4157 3.38923 19.083 3.85791 19.5751C4.32659 20.0672 4.96206 20.344 5.62488 20.3448H14.3749C15.0377 20.344 15.6732 20.0672 16.1418 19.5751C16.6105 19.083 16.8742 18.4157 16.8749 17.7198V10.501C16.8742 9.80508 16.6105 9.13784 16.1418 8.64572C15.6732 8.1536 15.0377 7.8768 14.3749 7.87604ZM12.4999 7.87604H7.49988V4.59479C7.49988 3.89859 7.76327 3.23092 8.23211 2.73863C8.70095 2.24635 9.33684 1.96979 9.99988 1.96979C10.6629 1.96979 11.2988 2.24635 11.7676 2.73863C12.2365 3.23092 12.4999 3.89859 12.4999 4.59479V7.87604Z" fill="#615BC9"/>
</svg>
