<svg width="22" height="22" viewBox="0 0 22 22" fill="none" xmlns="http://www.w3.org/2000/svg">
<ellipse cx="10.614" cy="6.67161" rx="4.37986" ry="4.37986" stroke="#807A7A" stroke-width="1.5" stroke-linecap="round" stroke-linejoin="round"/>
<path fill-rule="evenodd" clip-rule="evenodd" d="M3.66668 17.1431C3.6655 16.8352 3.73436 16.5311 3.86805 16.2537C4.28758 15.4146 5.47065 14.9699 6.45234 14.7686C7.16034 14.6175 7.87811 14.5165 8.60032 14.4665C9.93743 14.3491 11.2823 14.3491 12.6194 14.4665C13.3415 14.5171 14.0593 14.6181 14.7674 14.7686C15.7491 14.9699 16.9321 15.3727 17.3517 16.2537C17.6205 16.8191 17.6205 17.4755 17.3517 18.0409C16.9321 18.9219 15.7491 19.3246 14.7674 19.5176C14.0602 19.675 13.3422 19.7787 12.6194 19.8281C11.5311 19.9203 10.4377 19.9371 9.34708 19.8784C9.09536 19.8784 8.85203 19.8784 8.60032 19.8281C7.88024 19.7793 7.16496 19.6756 6.46073 19.5176C5.47065 19.3246 4.29597 18.9219 3.86805 18.0409C3.73505 17.7603 3.66625 17.4536 3.66668 17.1431Z" stroke="#807A7A" stroke-width="1.5" stroke-linecap="round" stroke-linejoin="round"/>
</svg>
