<svg width="24" height="22" viewBox="0 0 24 22" fill="none" xmlns="http://www.w3.org/2000/svg">
<path d="M15.3747 11.9271C16.3095 11.2579 16.9918 10.3402 17.3267 9.30178C17.6616 8.26333 17.6325 7.15572 17.2433 6.13304C16.8542 5.11037 16.1244 4.22348 15.1555 3.59577C14.1865 2.96806 13.0267 2.63074 11.8373 2.63074C10.6478 2.63074 9.48798 2.96806 8.51906 3.59577C7.55014 4.22348 6.82034 5.11037 6.43119 6.13304C6.04204 7.15572 6.01289 8.26333 6.3478 9.30178C6.68271 10.3402 7.36503 11.2579 8.29982 11.9271C6.69804 12.511 5.30042 13.4794 4.25598 14.7292C3.21153 15.979 2.55941 17.4632 2.36912 19.0237C2.35535 19.1376 2.36637 19.2529 2.40157 19.363C2.43676 19.473 2.49543 19.5757 2.57423 19.6651C2.73337 19.8457 2.96485 19.9614 3.21773 19.9867C3.47061 20.012 3.72418 19.9449 3.92267 19.8001C4.12115 19.6553 4.24828 19.4447 4.2761 19.2146C4.48547 17.5187 5.37422 15.9524 6.77254 14.815C8.17086 13.6776 9.98072 13.0488 11.8563 13.0488C13.7319 13.0488 15.5418 13.6776 16.9401 14.815C18.3384 15.9524 19.2272 17.5187 19.4366 19.2146C19.4625 19.4277 19.5743 19.6246 19.7504 19.7672C19.9264 19.9098 20.1543 19.988 20.3901 19.9867H20.4949C20.7449 19.9605 20.9733 19.8455 21.1305 19.6668C21.2877 19.488 21.3608 19.26 21.334 19.0324C21.1428 17.4675 20.4872 15.9794 19.4374 14.7277C18.3876 13.476 16.9832 12.5079 15.3747 11.9271ZM11.8373 11.3111C11.0829 11.3111 10.3455 11.1076 9.71834 10.7263C9.09114 10.3449 8.6023 9.80297 8.31363 9.16887C8.02496 8.53476 7.94943 7.83701 8.09659 7.16385C8.24376 6.49069 8.607 5.87235 9.14039 5.38703C9.67378 4.90171 10.3534 4.5712 11.0932 4.4373C11.833 4.3034 12.5999 4.37213 13.2968 4.63478C13.9937 4.89743 14.5894 5.34222 15.0084 5.9129C15.4275 6.48358 15.6512 7.15451 15.6512 7.84086C15.6512 8.76123 15.2494 9.6439 14.5341 10.2947C13.8189 10.9455 12.8488 11.3111 11.8373 11.3111Z" fill="#615BC9"/>
</svg>
